<svg width="240" height="160" viewBox="0 0 240 160" fill="none" xmlns="http://www.w3.org/2000/svg">
<g clip-path="url(#clip0_776_12099)">
<rect width="240" height="160" fill="white"/>
<rect width="320" height="159" transform="translate(-50 28)" fill="white"/>
<path d="M33 139C33.925 127.29 39.3437 126.109 42.5709 128.356C31.3943 118.205 46.5494 99.3431 58.3962 106.211C52.0472 89.2303 64.9527 70.392 89.1656 76.1133C91.3514 66.9178 102.079 48.8333 127.503 50.0593C159.282 51.5918 166.848 76.1081 164.831 82.238C173.834 76.1133 221.74 89.8158 207.31 126.118L208.465 139H58.3962H33Z" fill="#E6F7F7"/>
<path d="M23.1484 47.4105C18.7794 47.6727 17.9013 50.5794 18.0084 52H36C35.486 47.0186 31.5025 46.4276 29.575 46.7548C27.005 43.4736 23.4713 45.4426 23.1484 47.4105Z" fill="#CFFAFA"/>
<path d="M199.871 60.8438C193.404 61.2241 192.104 65.4388 192.262 67.4986H218.894C218.133 60.2756 212.237 59.4187 209.383 59.8931C205.579 55.1353 200.349 57.9904 199.871 60.8438Z" fill="#CFFAFA"/>
<path d="M61.0165 139.113C101.151 141.026 114.834 152.026 150.405 153.939C175.188 155.272 268.979 134.331 216.076 124.287L199.659 124.293C139.255 124.733 53.1099 114.422 35.1417 124.287H27.2657C13.5835 127.635 -10.7448 135.693 61.0165 139.113Z" fill="#5ACCCC"/>
<path d="M26 127.016C26 136.224 55.1478 128.956 115.265 139.618C178.115 150.764 241.876 131.539 212.728 122.656C118.909 94.0635 26 117.808 26 127.016Z" fill="#FABD33"/>
<path d="M47.0383 121.906C45.7074 105.053 37.942 92.6248 29.279 85.7234" stroke="#E09C00" stroke-width="2" stroke-linecap="round"/>
<path d="M54.2123 82.7424C47.3012 77.3072 33.2996 80.9606 29.5597 85.6925C29.9353 87.8099 35.0245 88.4644 37.2353 88.6626C39.4461 88.8609 37.9442 85.6501 39.9048 86.5403C41.8655 87.4304 46.4819 88.6909 46.1341 86.8472C45.7863 85.0035 47.0239 85.088 48.2892 85.4462C49.5546 85.8044 61.1234 88.1776 54.2123 82.7424Z" fill="#3F8773"/>
<path d="M61.1552 64.5647C48.2061 61.5543 30.9719 75.8066 28.6739 84.826C30.4959 87.5183 37.9767 85.0889 41.1736 83.9142C44.3705 82.7394 40.3108 79.2686 43.5843 79.2181C46.8579 79.1677 54.053 77.8894 52.4377 75.5589C50.8224 73.2284 52.5957 72.534 54.5756 72.2013C56.5555 71.8685 74.1044 67.575 61.1552 64.5647Z" fill="#4AA088"/>
<path d="M14.1644 110.557C12.7037 99.7456 23.3174 85.901 29.6288 84.2673C31.3946 85.8563 29.3716 91.9778 28.4131 94.5898C27.4546 97.2018 25.2587 93.7368 25.0698 96.4458C24.881 99.1548 23.6631 105.074 22.1363 103.667C20.6095 102.26 20.0485 103.708 19.7264 105.337C19.4043 106.967 15.6251 121.369 14.1644 110.557Z" fill="#4AA088"/>
<path d="M183.567 122.636C184.101 107.811 190.44 96.606 197.773 90.209" stroke="#E09C00" stroke-width="2" stroke-linecap="round"/>
<path d="M175.81 88.6023C181.664 83.5608 194.073 86.2 197.528 90.197C197.279 92.068 192.843 92.8461 190.912 93.1087C188.982 93.3713 190.178 90.4969 188.493 91.3558C186.808 92.2148 182.809 93.5052 183.045 91.8753C183.28 90.2454 182.199 90.3692 181.103 90.7339C180.008 91.0987 169.957 93.6437 175.81 88.6023Z" fill="#3F8773"/>
<path d="M171.321 96.8814C176.368 88.1437 192.572 85.8358 198.432 89.1623C198.9 91.5499 193.819 94.4697 191.577 95.6478C189.334 96.8258 189.603 92.7964 187.906 94.591C186.208 96.3857 181.871 99.7343 181.485 97.6463C181.098 95.5583 179.832 96.1899 178.649 97.121C177.465 98.0522 166.275 105.619 171.321 96.8814Z" fill="#4AA088"/>
<path d="M217.347 94.6303C213.408 87.8596 200.446 86.9779 195.708 90.0299C195.304 91.9926 199.342 94.0481 201.125 94.8658C202.908 95.6834 202.741 92.4356 204.08 93.7859C205.419 95.1362 208.856 97.5845 209.191 95.8695C209.526 94.1544 210.533 94.5889 211.471 95.2711C212.408 95.9532 221.287 101.401 217.347 94.6303Z" fill="#4AA088"/>
<ellipse cx="125.493" cy="123.86" rx="31.8715" ry="2.6069" fill="black" fill-opacity="0.2"/>
<path d="M91.983 66.8862C95.0314 69.3039 99.0259 66.9913 105.438 62.261C112.621 63.0669 124.086 67.1803 112.481 77.1874C97.9747 89.6964 86.2016 83.4945 81.0509 78.4489C75.9001 73.4032 71.275 60.2638 79.2639 57.1103C87.2528 53.9568 88.9346 64.4685 91.983 66.8862Z" fill="#28B8B8"/>
<path d="M85.2908 57.6026C87.6084 56.4379 88.8783 59.0443 90.8688 65.4165L84.5732 64.0707C83.6904 61.6515 82.968 58.7655 85.2908 57.6026Z" fill="#28B8B8"/>
<path d="M90.8688 65.4165C88.8783 59.0443 87.6084 56.4379 85.2908 57.6026C82.9733 58.7672 83.6957 61.6532 84.5732 64.0707" stroke="#DEECEC" stroke-miterlimit="10" stroke-linecap="round" stroke-linejoin="round"/>
<path d="M104.63 62.5709C106.514 70.4567 108.023 83.065 106.683 92.4595C105.37 101.876 104.058 112.769 104.983 123.661C104.983 123.661 116.632 124.603 123.963 124.401C123.963 124.401 123.643 118.484 124.182 115.943C124.687 113.621 126.42 108.983 128.686 112.365C130.957 115.741 130.183 124.401 130.183 124.401C137.514 124.586 149.163 123.661 149.163 123.661C150.105 112.769 148.776 101.854 147.463 92.4595L142.909 60.1143" fill="#28B8B8"/>
<path d="M106.695 108.063C106.46 111.642 106.409 114.183 106.51 118.215" stroke="#DEECEC" stroke-miterlimit="10" stroke-linecap="round" stroke-linejoin="round"/>
<path d="M116.506 121.226C115.311 121.226 114.319 122.033 114.016 123.127C113.713 122.033 112.72 121.226 111.525 121.226C110.28 121.226 109.237 122.118 109.002 123.279C108.8 122.067 107.723 121.142 106.461 121.142C105.855 121.142 105.227 121.344 104.806 121.714C104.84 122.387 104.89 123.026 104.941 123.699C104.941 123.699 112.327 124.288 119.002 124.44C119.035 124.238 119.086 124.053 119.086 123.834C119.092 122.387 117.931 121.226 116.506 121.226Z" fill="#AEDBDB"/>
<path d="M134.018 124.464C137.327 124.38 139.543 124.318 141.798 124.189C141.983 124.172 143.918 124.077 144.086 124.043C144.086 124.026 144.086 123.729 144.086 123.695C144.069 122.248 142.874 121.121 141.461 121.138C140.266 121.155 139.274 121.979 139.004 123.073C138.685 121.979 137.675 121.188 136.481 121.222C135.235 121.239 134.226 122.131 133.973 123.325C133.755 122.114 132.678 121.205 131.382 121.222C131.079 121.222 130.53 121.289 130.277 121.39C130.277 122.501 130.266 123.494 130.188 124.436C130.199 124.436 132.465 124.497 134.018 124.464Z" fill="#AEDBDB"/>
<path d="M126.046 109.207C127.544 110.149 131.105 112.398 130.365 124.423" stroke="#335C6E" stroke-miterlimit="10" stroke-linecap="round" stroke-linejoin="round"/>
<path d="M132.731 72.0407C135.602 75.0974 136.87 79.9489 137.229 81.5137C137.924 84.5705 138.401 87.6777 137.481 93.3312C136.124 101.654 135.215 101.884 136.999 104.851C139.377 108.817 143.555 108.497 145.788 107.577C154.083 104.162 153.438 93.32 152.114 80.5154C150.768 67.7164 143.516 60.8906 143.516 60.8906" fill="#5ACCCC"/>
<path d="M139.387 107.23C146.667 109.933 149.982 106.142 151.962 99.6471C154.026 92.8775 152.954 74.6212 147.144 65.9727" stroke="#DEECEC" stroke-miterlimit="10" stroke-linecap="round" stroke-linejoin="round"/>
<path d="M109.078 21.1163C105.062 13.7521 101.445 9.09693 96.84 8.72676C92.2184 8.35659 87.8269 18.3905 86.1667 23.8253C84.4841 29.2545 79.2736 48.1165 85.8638 54.3702C92.4708 60.607 104.642 50.1693 104.642 50.1693" fill="#28B8B8"/>
<path d="M106.482 23.5999C103.588 18.5241 100.935 13.8016 96.7341 13.7511C92.5164 13.7174 89.8074 20.5096 88.5454 24.0542C87.2835 27.6158 82.8134 41.3177 87.233 49.2035C91.6526 57.0893 106.734 44.2286 106.734 44.2286" fill="#F2B071"/>
<path d="M90.2532 20.0228C93.2146 13.7523 96.3891 11.7668 100.371 15.0311C103.849 17.8747 106.188 23.5395 106.188 23.5395" stroke="#DEECEC" stroke-width="0.504781" stroke-miterlimit="10" stroke-linecap="round" stroke-linejoin="round"/>
<path d="M120.314 81.9186C122.131 79.0918 129.344 75.6145 129.344 75.6145C132.956 74.4703 150.225 66.7528 154.308 56.3655C157.067 49.3378 158.963 37.5876 156.209 30.6273C150.578 16.4373 139.838 10.2509 130.471 8.88803C114.183 6.49874 100.364 21.0757 97.4864 29.4831C94.626 37.8737 93.8912 43.9591 100.913 60.9366C103.404 66.9042 104.811 71.4921 105.4 74.5881C108.188 88.1162 118.379 84.9305 120.314 81.9186Z" fill="#5ACCCC"/>
<path d="M152.547 59.6299C147.05 67.2128 138.862 72.0755 129.333 75.8726" stroke="#DEECEC" stroke-miterlimit="10" stroke-linecap="round" stroke-linejoin="round"/>
<path d="M107.156 111.337C114.47 103.131 118.368 84.9256 120.303 81.9194C125.844 73.3662 133.119 58.3966 116.853 57.7684C100.588 57.1403 103.241 62.9901 105.389 74.5945C107.408 88.0441 106.029 95.1222 104.127 100.837C101.536 107.731 100.414 109.963 101.592 111.342C102.776 112.717 104.694 114.051 107.156 111.337Z" fill="#5ACCCC"/>
<path d="M107.411 81.5156C109.313 82.2896 111.41 81.9026 111.41 81.9026" stroke="#DEECEC" stroke-miterlimit="10" stroke-linecap="round" stroke-linejoin="round"/>
<path d="M107.413 84.9658C108.944 85.5379 110.273 85.3528 110.273 85.3528" stroke="#DEECEC" stroke-miterlimit="10" stroke-linecap="round" stroke-linejoin="round"/>
<path d="M107.021 88.0049C108.35 88.577 109.68 88.3919 109.68 88.3919" stroke="#DEECEC" stroke-miterlimit="10" stroke-linecap="round" stroke-linejoin="round"/>
<path d="M109.37 100.715C107.66 99.2282 104.726 98.9254 104.138 100.832C101.53 108.651 94.4233 110.496 91.3947 105.79C90.6207 105.123 89.0446 107.333 88.4221 109.969C88.0407 111.427 88.2145 114.175 89.4597 114.108C91.0413 113.065 99.8469 119.537 107.161 111.332C112.999 103.564 109.943 101.214 109.37 100.715Z" fill="#5ACCCC"/>
<path d="M91.0538 105.604C92.1812 105.906 92.7028 108.026 92.1475 110.377C91.6091 112.699 90.263 114.359 89.1188 114.056C87.9915 113.753 87.4699 111.633 88.0251 109.283C88.5804 106.966 89.9265 105.317 91.0538 105.604Z" fill="#AEDBDB"/>
<path d="M142.536 35.0991C144.825 28.0546 151.886 22.9115 157.416 21.2008C162.946 19.4902 166.177 21.2008 168.089 25.0147C169.991 28.8286 172.29 41.4033 169.032 52.0822C165.79 62.7555 161.398 66.188 155.868 65.9861C150.338 65.7842 145.195 62.3741 142.149 58.5546" fill="#5ACCCC"/>
<path d="M147.865 31.1009C147.865 31.1009 155.684 24.0564 162.156 25.1837C166.895 26.025 167.871 36.4291 167.686 40.0635C167.501 43.6755 167.4 59.9014 156.828 61.4158C152.829 61.9878 147.865 58.3702 145.767 55.7005C149.071 50.6864 150.972 37.8088 147.865 31.1009Z" fill="#F2B071"/>
<path d="M153.688 22.4795C149.1 24.9697 144.439 28.6266 142.341 35.873" stroke="#DEECEC" stroke-miterlimit="10" stroke-linecap="round" stroke-linejoin="round"/>
<path d="M129.407 58.7984C131.559 58.9322 134.346 58.8367 135.191 58.1677C136.46 57.1355 136.863 58.3015 136.863 58.3015C136.748 60.8628 136.287 68.0306 131.136 70.0567C129.484 70.7066 128.004 70.6874 126.812 70.3052" fill="#335C6E"/>
<path d="M129.404 59.4868C131.056 59.7353 133.42 59.8691 134.919 59.2384C137.322 58.2062 135.688 59.5824 135.688 59.5824C135.688 59.5824 134.554 60.4617 132.267 60.5955C131.191 60.6528 130.153 60.5955 129.212 60.4808" fill="white"/>
<path d="M126.865 69.5791C128.095 70.0188 130.439 69.7894 131.573 69.1204C133.726 67.878 134.629 65.2593 134.629 65.2593C134.629 65.2593 132.265 62.029 129.44 65.1447L129.863 63.9022C129.863 63.9022 129.248 63.864 128.518 64.0743" fill="#F2B071"/>
<path d="M129.406 58.9717C127.946 71.0518 122.565 78.4108 119.624 83.2276" stroke="#335C6E" stroke-miterlimit="10" stroke-linecap="round" stroke-linejoin="round"/>
<path d="M115.532 30.023C114.893 34.3753 112.038 37.6901 109.161 37.3872C106.267 37.0843 104.455 33.3041 105.078 28.9293C105.717 24.577 108.572 21.2622 111.449 21.5651C114.354 21.868 116.172 25.6538 115.532 30.023Z" fill="#335C6E"/>
<path d="M115.183 30.7966C114.543 35.2835 111.688 38.6656 108.828 38.3627C105.968 38.0598 104.19 34.2123 104.829 29.7197C105.468 25.2328 108.323 21.8508 111.184 22.1536C114.038 22.4565 115.822 26.3096 115.183 30.7966Z" fill="white"/>
<path d="M114.459 31.1458C114.184 34.0903 112.412 36.3955 110.505 36.2889C108.598 36.1824 107.28 33.7202 107.588 30.7756C107.863 27.8311 109.636 25.5259 111.543 25.6325C113.45 25.739 114.734 28.2012 114.459 31.1458Z" fill="#335C6E"/>
<path d="M112.773 34.9986C112.745 35.7726 112.151 36.3784 111.444 36.3952C110.737 36.3952 110.165 35.767 110.182 35.0098C110.21 34.2358 110.805 33.6301 111.511 33.6133C112.218 33.6133 112.784 34.2415 112.773 34.9986Z" fill="white"/>
<path d="M129.149 39.6682C125.369 39.1868 122.778 34.8945 123.367 30.0807C123.956 25.2669 127.5 21.7482 131.286 22.2296C135.067 22.711 137.658 27.0033 137.069 31.8171C136.474 36.6423 132.93 40.1495 129.149 39.6682Z" fill="#335C6E"/>
<path d="M128.96 40.1308C125.264 39.6666 122.74 35.3915 123.329 30.5949C123.918 25.804 127.379 22.2968 131.08 22.761C134.777 23.2252 137.301 27.5003 136.712 32.2969C136.117 37.0878 132.64 40.5949 128.96 40.1308Z" fill="white"/>
<path d="M129.744 37.4679C127.304 37.2272 125.577 34.5281 125.863 31.4392C126.149 28.3446 128.353 26.0294 130.787 26.2701C133.221 26.5108 134.954 29.21 134.668 32.2988C134.382 35.3877 132.184 37.6914 129.744 37.4679Z" fill="#335C6E"/>
<path d="M129.8 36.5595C129.43 35.8374 129.665 34.9778 130.321 34.634C130.978 34.2902 131.802 34.5996 132.172 35.3045C132.542 36.0266 132.307 36.8862 131.651 37.23C130.994 37.5853 130.17 37.2816 129.8 36.5595Z" fill="white"/>
<path d="M130.947 11.9094C130.661 10.8662 128.457 10.0081 127.335 7.91046C126.191 5.8072 128.951 2.48126 132.664 2.7673C136.848 3.087 137.252 6.37929 135.906 7.3552C134.576 8.29746 131.62 8.02824 131.048 6.68216C130.308 4.9659 132.58 4.5789 133.438 4.86495" stroke="#335C6E" stroke-miterlimit="10" stroke-linecap="round" stroke-linejoin="round"/>
</g>
<defs>
<clipPath id="clip0_776_12099">
<rect width="240" height="160" fill="white"/>
</clipPath>
</defs>
</svg>
